<?xml version="1.0" standalone="no"?>
<!DOCTYPE svg PUBLIC "-//W3C//DTD SVG 20010904//EN"
 "http://www.w3.org/TR/2001/REC-SVG-20010904/DTD/svg10.dtd">
<svg version="1.0" xmlns="http://www.w3.org/2000/svg"
 width="232.000000pt" height="232.000000pt" viewBox="0 0 232.000000 232.000000"
 preserveAspectRatio="xMidYMid meet">
<metadata>
Created by potrace 1.11, written by Peter Selinger 2001-2013
</metadata>
<g transform="translate(0.000000,232.000000) scale(0.100000,-0.100000)"
fill="#000000" stroke="none">
<path d="M1090 2155 c0 -14 -8 -29 -20 -35 -11 -6 -20 -17 -20 -25 0 -8 -6
-15 -12 -15 -9 0 -8 -3 2 -10 16 -10 15 -12 -15 -28 -11 -6 -14 -12 -7 -12 20
0 14 -20 -10 -30 l-23 -9 22 0 c31 -1 20 -27 -15 -37 l-27 -7 25 -7 25 -7 -27
-13 c-16 -7 -28 -20 -28 -27 0 -8 -4 -11 -10 -8 -6 3 -7 -1 -4 -9 3 -9 1 -16
-5 -16 -6 0 -11 -4 -11 -9 0 -5 15 -5 35 -1 23 5 35 4 38 -4 3 -8 11 -8 29 1
28 13 38 3 38 -38 0 -14 7 -19 30 -19 26 0 30 4 30 26 0 24 1 24 17 8 12 -11
18 -13 21 -5 3 9 7 9 18 1 15 -13 34 -5 34 14 0 8 9 16 21 19 20 5 20 7 6 27
-9 12 -13 28 -11 35 3 6 -2 18 -11 25 -8 7 -15 19 -15 26 0 8 -5 14 -11 14 -8
0 -8 4 0 14 10 11 8 16 -9 21 -11 3 -18 10 -15 15 3 5 1 11 -5 15 -6 4 -8 10
-5 15 3 5 -3 18 -14 29 -10 10 -25 35 -32 55 -15 42 -29 47 -29 11z"/>
<path d="M1703 2173 c-8 -3 -13 -23 -13 -48 0 -32 -6 -50 -22 -64 -17 -17 -19
-23 -8 -36 7 -8 15 -15 19 -15 4 0 36 25 73 55 36 30 72 55 80 55 7 0 40 -25
72 -55 57 -53 86 -63 86 -31 0 14 -69 78 -132 123 -35 23 -40 24 -60 11 -20
-13 -25 -13 -36 -2 -13 14 -36 17 -59 7z"/>
<path d="M1710 1906 c0 -84 -13 -121 -26 -71 -8 34 -39 30 -39 -5 0 -25 1 -25
100 -28 55 -1 95 1 88 6 -7 5 -13 40 -15 92 l-3 85 -52 3 -53 3 0 -85z"/>
<path d="M1832 1938 l3 -53 53 -3 52 -3 0 55 0 56 -56 0 -55 0 3 -52z"/>
<path d="M1950 1945 c0 -25 5 -45 10 -45 6 0 10 20 10 45 0 25 -4 45 -10 45
-5 0 -10 -20 -10 -45z"/>
<path d="M344 1965 c-8 -20 4 -35 27 -35 14 0 19 7 19 25 0 18 -5 25 -20 25
-11 0 -23 -7 -26 -15z"/>
<path d="M1950 1835 c0 -28 4 -35 20 -35 10 0 24 9 30 19 8 16 6 23 -12 35
-32 23 -38 20 -38 -19z"/>
<path d="M1903 1803 c9 -2 23 -2 30 0 6 3 -1 5 -18 5 -16 0 -22 -2 -12 -5z"/>
<path d="M253 1443 c-8 -3 -13 -23 -13 -48 0 -32 -6 -50 -22 -64 -17 -17 -19
-23 -8 -36 7 -8 15 -15 19 -15 4 0 36 25 73 55 36 30 72 55 80 55 7 0 40 -25
72 -55 57 -53 86 -63 86 -31 0 14 -69 78 -132 123 -35 23 -40 24 -60 11 -20
-13 -25 -13 -36 -2 -13 14 -36 17 -59 7z"/>
<path d="M1035 1275 c-69 -69 12 -179 98 -133 80 42 52 158 -38 158 -25 0 -44
-8 -60 -25z"/>
<path d="M1755 1268 c-32 -38 -29 -81 11 -115 55 -49 136 -12 136 62 0 81 -95
115 -147 53z"/>
<path d="M260 1176 c0 -84 -13 -121 -26 -71 -8 34 -39 30 -39 -5 0 -25 1 -25
100 -28 55 -1 95 1 88 6 -7 5 -13 40 -15 92 l-3 85 -52 3 -53 3 0 -85z"/>
<path d="M382 1208 l3 -53 53 -3 52 -3 0 55 0 56 -56 0 -55 0 3 -52z"/>
<path d="M500 1215 c0 -25 5 -45 10 -45 6 0 10 20 10 45 0 25 -4 45 -10 45 -5
0 -10 -20 -10 -45z"/>
<path d="M500 1105 c0 -28 4 -35 20 -35 10 0 24 9 30 19 8 16 6 23 -12 35 -32
23 -38 20 -38 -19z"/>
<path d="M453 1073 c9 -2 23 -2 30 0 6 3 -1 5 -18 5 -16 0 -22 -2 -12 -5z"/>
<path d="M1054 721 c4 -5 -4 -7 -16 -3 -17 4 -20 2 -15 -11 4 -11 2 -14 -9
-10 -27 10 -91 -67 -85 -104 1 -6 -2 -14 -7 -17 -13 -8 9 -97 28 -116 21 -22
73 -46 104 -49 9 0 16 -14 18 -33 2 -25 8 -33 23 -33 15 0 21 8 23 33 2 17 6
32 10 33 48 4 69 12 98 34 19 14 32 30 29 34 -2 5 0 23 5 41 17 58 -5 114 -64
165 -45 40 -56 45 -99 45 -26 0 -46 -4 -43 -9z m49 -26 c1 -6 -11 -11 -28 -13
-29 -2 -29 -2 -10 13 20 16 35 16 38 0z m-55 -36 c-2 -6 -8 -10 -13 -10 -5 0
-11 4 -13 10 -2 6 4 11 13 11 9 0 15 -5 13 -11z m-48 -24 c-7 -9 -15 -13 -17
-11 -7 7 7 26 19 26 6 0 6 -6 -2 -15z m128 -8 c-7 -8 -20 -12 -30 -9 -25 6
-12 22 18 22 20 0 23 -2 12 -13z m-78 -27 c-20 -13 -40 -13 -40 0 0 6 12 10
28 10 21 0 24 -2 12 -10z m-20 -46 c0 -2 -12 -4 -26 -4 -14 0 -23 4 -20 9 6 8
46 4 46 -5z"/>
<path d="M1755 548 c-32 -38 -29 -81 11 -115 55 -49 136 -12 136 62 0 81 -95
115 -147 53z"/>
<path d="M344 515 c-8 -20 4 -35 27 -35 14 0 19 7 19 25 0 18 -5 25 -20 25
-11 0 -23 -7 -26 -15z"/>
</g>
</svg>
